<svg width="32" height="32" viewBox="0 0 32 32" fill="none" xmlns="http://www.w3.org/2000/svg">
<g clip-path="url(#clip0_12_37)">
<path fill-rule="evenodd" clip-rule="evenodd" d="M16.0132 0C7.15833 0 0 7.23681 0 16.1897C0 23.3463 4.58659 29.4042 10.9494 31.5482C11.7449 31.7094 12.0363 31.1999 12.0363 30.7713C12.0363 30.3959 12.0101 29.1094 12.0101 27.769C7.5556 28.7341 6.62799 25.839 6.62799 25.839C5.91212 23.9627 4.85143 23.4805 4.85143 23.4805C3.39348 22.4887 4.95763 22.4887 4.95763 22.4887C6.57489 22.596 7.4235 24.1506 7.4235 24.1506C8.85491 26.6163 11.1615 25.9196 12.0894 25.4907C12.2218 24.4453 12.6463 23.7216 13.097 23.3196C9.54422 22.9443 5.80625 21.5506 5.80625 15.3318C5.80625 13.5628 6.44214 12.1154 7.44973 10.9898C7.29075 10.5878 6.73386 8.92562 7.60903 6.70096C7.60903 6.70096 8.96111 6.27201 12.0098 8.36279C13.315 8.00841 14.6611 7.82813 16.0132 7.82661C17.3653 7.82661 18.7436 8.01444 20.0164 8.36279C23.0654 6.27201 24.4175 6.70096 24.4175 6.70096C25.2926 8.92562 24.7354 10.5878 24.5764 10.9898C25.6106 12.1154 26.2202 13.5628 26.2202 15.3318C26.2202 21.5506 22.4823 22.9173 18.9029 23.3196C19.4864 23.8288 19.9898 24.7936 19.9898 26.3216C19.9898 28.4926 19.9636 30.2351 19.9636 30.7709C19.9636 31.1999 20.2553 31.7094 21.0505 31.5486C27.4133 29.4038 31.9999 23.3463 31.9999 16.1897C32.0262 7.23681 24.8416 0 16.0132 0Z" fill="white"/>
</g>
<defs>
<clipPath id="clip0_12_37">
<rect width="32" height="32" fill="white"/>
</clipPath>
</defs>
</svg>
