<svg width="32" height="32" viewBox="0 0 32 32" fill="none" xmlns="http://www.w3.org/2000/svg">
<path d="M15.9901 5C15.9901 5 5.98877 5.00001 3.47858 5.65227C2.13453 6.02781 1.02781 7.13454 0.652272 8.49835C1.4861e-05 11.0086 0 16.207 0 16.207C0 16.207 1.4861e-05 21.4251 0.652272 23.8958C1.02781 25.2596 2.11477 26.3466 3.47858 26.7221C6.00854 27.3941 15.9901 27.3941 15.9901 27.3941C15.9901 27.3941 26.0112 27.3941 28.5214 26.7419C29.8852 26.3663 30.9721 25.2991 31.3279 23.9156C31.9999 21.4251 31.9999 16.2267 31.9999 16.2267C31.9999 16.2267 32.0197 11.0086 31.3279 8.49835C30.9721 7.13454 29.8852 6.0476 28.5214 5.69182C26.0112 5.00003 15.9901 5 15.9901 5ZM12.8078 11.4041L21.1292 16.207L12.8078 20.9901V11.4041Z" fill="white"/>
</svg>
