<svg width="128" height="128" viewBox="0 0 128 128" fill="none" xmlns="http://www.w3.org/2000/svg">
<g clip-path="url(#clip0_105_9)">
<path d="M108.428 24.0399C100.019 20.2298 91.1406 17.5269 82.021 16C80.773 18.2076 79.6439 20.4789 78.6383 22.8045C68.9241 21.3559 59.0455 21.3559 49.3313 22.8045C48.3252 20.4792 47.196 18.2079 45.9486 16C36.8232 17.5397 27.9393 20.2491 19.5211 24.0598C2.80878 48.528 -1.72166 72.3885 0.543556 95.9103C10.3307 103.066 21.2853 108.508 32.9312 112C35.5535 108.51 37.8739 104.807 39.8678 100.932C36.0807 99.5318 32.4254 97.8049 28.9444 95.7709C29.8605 95.1133 30.7565 94.4359 31.6224 93.7783C41.7514 98.4921 52.8067 100.936 63.9999 100.936C75.1931 100.936 86.2484 98.4921 96.3774 93.7783C97.2533 94.4857 98.1493 95.1631 99.0554 95.7709C95.5677 97.8082 91.9057 99.5384 88.1119 100.941C90.1033 104.815 92.4239 108.515 95.0485 112C106.704 108.522 117.667 103.083 127.456 95.9203C130.114 68.6426 122.916 45.0012 108.428 24.0399ZM42.737 81.4446C36.4246 81.4446 31.2096 75.7758 31.2096 68.802C31.2096 61.8281 36.2434 56.1096 42.7169 56.1096C49.1904 56.1096 54.3652 61.8281 54.2544 68.802C54.1437 75.7758 49.1703 81.4446 42.737 81.4446ZM85.2628 81.4446C78.9403 81.4446 73.7454 75.7758 73.7454 68.802C73.7454 61.8281 78.7792 56.1096 85.2628 56.1096C91.7463 56.1096 96.8808 61.8281 96.7701 68.802C96.6593 75.7758 91.696 81.4446 85.2628 81.4446Z" fill="white"/>
</g>
<defs>
<clipPath id="clip0_105_9">
<rect width="128" height="96" fill="white" transform="translate(0 16)"/>
</clipPath>
</defs>
</svg>
