<svg width="65" height="65" viewBox="0 0 65 65" fill="none" xmlns="http://www.w3.org/2000/svg">
<path d="M36.3099 24.174L36.3129 24.332L28.4829 35.707C27.2149 35.649 25.9429 35.872 24.7349 36.369C24.209 36.5827 23.7069 36.8508 23.2369 37.169L6.04188 30.082C6.04188 30.082 5.64388 36.628 7.30188 41.506L19.4579 46.522C20.0579 49.25 21.9379 51.642 24.6999 52.792C26.8728 53.6949 29.3153 53.6984 31.4908 52.8018C33.6664 51.9052 35.3971 50.1817 36.3029 48.01C36.7861 46.8532 37.0192 45.6073 36.9869 44.354L48.1799 36.349L48.4549 36.354C55.1599 36.354 60.6099 30.888 60.6099 24.174C60.6099 17.46 55.1699 12.014 48.4549 12C41.7529 12 36.2999 17.46 36.2999 24.174H36.3099ZM34.4299 47.224C32.9759 50.724 28.9639 52.371 25.4769 50.918C23.9295 50.2677 22.6752 49.0711 21.9529 47.556L25.9099 49.196C26.5212 49.4504 27.1766 49.582 27.8387 49.583C28.5008 49.5841 29.1567 49.4546 29.7687 49.2021C30.3808 48.9496 30.9372 48.579 31.4059 48.1114C31.8747 47.6438 32.2468 47.0884 32.5009 46.477C33.0154 45.2415 33.0184 43.8524 32.5093 42.6147C32.0003 41.377 31.0207 40.392 29.7859 39.876L25.6859 38.181C27.2639 37.581 29.0579 37.561 30.7359 38.258C32.4359 38.961 33.7359 40.285 34.4319 41.978C35.1279 43.671 35.1239 45.538 34.4219 47.224M48.4659 32.289C46.3173 32.2832 44.2587 31.4261 42.7409 29.9054C41.223 28.3848 40.3697 26.3245 40.3679 24.176C40.3702 22.0278 41.2238 19.9681 42.7416 18.4479C44.2593 16.9276 46.3177 16.0708 48.4659 16.065C50.6144 16.0703 52.6733 16.9269 54.1915 18.4472C55.7097 19.9674 56.5635 22.0275 56.5659 24.176C56.564 26.3249 55.7105 28.3854 54.1922 29.9061C52.6739 31.4268 50.6148 32.2837 48.4659 32.289ZM42.3979 24.163C42.3965 22.5487 43.0362 20.9999 44.1763 19.857C45.3164 18.7141 46.8636 18.0707 48.4779 18.068C51.8329 18.068 54.5619 20.798 54.5619 24.163C54.5627 25.7777 53.9222 27.3265 52.7813 28.4691C51.6405 29.6117 50.0925 30.2544 48.4779 30.256C46.8637 30.2536 45.3166 29.6105 44.1763 28.468C43.0361 27.3256 42.3971 25.7771 42.3979 24.163Z" fill="white"/>
</svg>
